<?xml version="1.0" encoding="UTF-8"?>
<svg xmlns="http://www.w3.org/2000/svg" xmlns:xlink="http://www.w3.org/1999/xlink" width="22pt" height="22pt" viewBox="0 0 22 22" version="1.1">
<g id="surface1">
<path style=" stroke:none;fill-rule:nonzero;fill:rgb(0%,0%,0%;fill-opacity:1;" d="M 15.710938 0.00390625 L 12.992188 0 C 9.945312 0 7.96875 2.027344 7.96875 5.15625 L 7.96875 7.527344 L 5.234375 7.527344 C 5.003906 7.527344 4.8125 7.726562 4.8125 7.964844 L 4.8125 11.40625 C 4.8125 11.640625 5.003906 11.835938 5.234375 11.835938 L 7.96875 11.835938 L 7.96875 20.523438 C 7.96875 20.761719 8.164062 20.953125 8.398438 20.953125 L 11.960938 20.953125 C 12.195312 20.953125 12.386719 20.761719 12.386719 20.523438 L 12.386719 11.835938 L 15.582031 11.835938 C 15.824219 11.835938 16.011719 11.640625 16.011719 11.40625 L 16.015625 7.964844 C 16.015625 7.847656 15.96875 7.742188 15.882812 7.660156 C 15.804688 7.574219 15.699219 7.527344 15.582031 7.527344 L 12.386719 7.527344 L 12.386719 5.515625 C 12.386719 4.550781 12.621094 4.058594 13.878906 4.058594 L 15.710938 4.058594 C 15.949219 4.058594 16.136719 3.867188 16.136719 3.632812 L 16.136719 0.429688 C 16.136719 0.195312 15.949219 0.00390625 15.710938 0.00390625 Z M 15.710938 0.00390625 "/>
</g>
</svg>
