<?xml version="1.0" encoding="UTF-8"?>
<svg xmlns="http://www.w3.org/2000/svg" xmlns:xlink="http://www.w3.org/1999/xlink" width="22pt" height="22pt" viewBox="0 0 22 22" version="1.1">
<g id="surface1">
<path style=" stroke:none;fill-rule:nonzero;fill:rgb(0%,0%,0%);fill-opacity:1;" d="M 19.867188 5.5625 C 19.640625 4.722656 18.980469 4.058594 18.140625 3.828125 C 16.605469 3.410156 10.457031 3.410156 10.457031 3.410156 C 10.457031 3.410156 4.316406 3.410156 2.777344 3.820312 C 1.957031 4.039062 1.269531 4.722656 1.050781 5.5625 C 0.644531 7.097656 0.644531 10.28125 0.644531 10.28125 C 0.644531 10.28125 0.644531 13.488281 1.050781 15 C 1.269531 15.84375 1.9375 16.511719 2.777344 16.730469 C 4.335938 17.148438 10.457031 17.148438 10.457031 17.148438 C 10.457031 17.148438 16.605469 17.148438 18.140625 16.75 C 18.980469 16.523438 19.640625 15.859375 19.867188 15.019531 C 20.269531 13.488281 20.269531 10.296875 20.269531 10.296875 C 20.269531 10.296875 20.289062 7.097656 19.867188 5.5625 Z M 8.5 13.222656 L 8.5 7.335938 L 13.609375 10.28125 Z M 8.5 13.222656 "/>
</g>
</svg>
